<mxfile host="app.diagrams.net" modified="2024-01-29T07:16:08.284Z" agent="Mozilla/5.0 (Windows NT 10.0; Win64; x64) AppleWebKit/537.36 (KHTML, like Gecko) Chrome/120.0.0.0 Safari/537.36" etag="gweJGJ_Rfnha6xi5Gan4" version="23.0.2" type="github">
  <diagram name="Page-1" id="SURBXBBDymyr0trpyH_-">
    <mxGraphModel dx="756" dy="419" grid="1" gridSize="10" guides="1" tooltips="1" connect="1" arrows="1" fold="1" page="1" pageScale="1" pageWidth="850" pageHeight="1100" math="0" shadow="0">
      <root>
        <mxCell id="0" />
        <mxCell id="1" parent="0" />
        <mxCell id="-CZIh_7qn00PK2EPtxuE-1" value="" style="rounded=0;whiteSpace=wrap;html=1;" vertex="1" parent="1">
          <mxGeometry x="170" y="20" width="590" height="580" as="geometry" />
        </mxCell>
        <mxCell id="-CZIh_7qn00PK2EPtxuE-5" value="Admin" style="rounded=1;whiteSpace=wrap;html=1;" vertex="1" parent="1">
          <mxGeometry x="190" y="100" width="70" height="30" as="geometry" />
        </mxCell>
        <mxCell id="-CZIh_7qn00PK2EPtxuE-13" value="" style="edgeStyle=orthogonalEdgeStyle;rounded=0;orthogonalLoop=1;jettySize=auto;html=1;" edge="1" parent="1" source="-CZIh_7qn00PK2EPtxuE-6" target="-CZIh_7qn00PK2EPtxuE-7">
          <mxGeometry relative="1" as="geometry" />
        </mxCell>
        <mxCell id="-CZIh_7qn00PK2EPtxuE-6" value="Login" style="rounded=1;whiteSpace=wrap;html=1;" vertex="1" parent="1">
          <mxGeometry x="300" y="105" width="70" height="25" as="geometry" />
        </mxCell>
        <mxCell id="-CZIh_7qn00PK2EPtxuE-14" value="" style="edgeStyle=orthogonalEdgeStyle;rounded=0;orthogonalLoop=1;jettySize=auto;html=1;" edge="1" parent="1" source="-CZIh_7qn00PK2EPtxuE-7" target="-CZIh_7qn00PK2EPtxuE-8">
          <mxGeometry relative="1" as="geometry" />
        </mxCell>
        <mxCell id="-CZIh_7qn00PK2EPtxuE-7" value="Halaman Utama" style="rounded=1;whiteSpace=wrap;html=1;" vertex="1" parent="1">
          <mxGeometry x="406" y="102.5" width="100" height="30" as="geometry" />
        </mxCell>
        <mxCell id="-CZIh_7qn00PK2EPtxuE-15" value="" style="edgeStyle=orthogonalEdgeStyle;rounded=0;orthogonalLoop=1;jettySize=auto;html=1;" edge="1" parent="1" source="-CZIh_7qn00PK2EPtxuE-8" target="-CZIh_7qn00PK2EPtxuE-10">
          <mxGeometry relative="1" as="geometry" />
        </mxCell>
        <mxCell id="-CZIh_7qn00PK2EPtxuE-8" value="Lihat Daftar Kunjungan" style="rounded=1;whiteSpace=wrap;html=1;" vertex="1" parent="1">
          <mxGeometry x="549" y="98" width="130" height="40" as="geometry" />
        </mxCell>
        <mxCell id="-CZIh_7qn00PK2EPtxuE-20" value="" style="edgeStyle=orthogonalEdgeStyle;rounded=0;orthogonalLoop=1;jettySize=auto;html=1;" edge="1" parent="1" source="-CZIh_7qn00PK2EPtxuE-9" target="-CZIh_7qn00PK2EPtxuE-19">
          <mxGeometry relative="1" as="geometry">
            <Array as="points">
              <mxPoint x="410" y="378" />
              <mxPoint x="410" y="300" />
            </Array>
          </mxGeometry>
        </mxCell>
        <mxCell id="-CZIh_7qn00PK2EPtxuE-9" value="Melihat Semua Rincian Buku" style="rounded=1;whiteSpace=wrap;html=1;" vertex="1" parent="1">
          <mxGeometry x="250" y="358" width="120" height="40" as="geometry" />
        </mxCell>
        <mxCell id="-CZIh_7qn00PK2EPtxuE-16" value="" style="edgeStyle=orthogonalEdgeStyle;rounded=0;orthogonalLoop=1;jettySize=auto;html=1;" edge="1" parent="1" source="-CZIh_7qn00PK2EPtxuE-10" target="-CZIh_7qn00PK2EPtxuE-11">
          <mxGeometry relative="1" as="geometry" />
        </mxCell>
        <mxCell id="-CZIh_7qn00PK2EPtxuE-10" value="Lihat Riwayat Pengunjung" style="rounded=1;whiteSpace=wrap;html=1;" vertex="1" parent="1">
          <mxGeometry x="562" y="205" width="105" height="50" as="geometry" />
        </mxCell>
        <mxCell id="-CZIh_7qn00PK2EPtxuE-17" value="" style="edgeStyle=orthogonalEdgeStyle;rounded=0;orthogonalLoop=1;jettySize=auto;html=1;" edge="1" parent="1" source="-CZIh_7qn00PK2EPtxuE-11" target="-CZIh_7qn00PK2EPtxuE-9">
          <mxGeometry relative="1" as="geometry" />
        </mxCell>
        <mxCell id="-CZIh_7qn00PK2EPtxuE-11" value="Kembali" style="rounded=1;whiteSpace=wrap;html=1;" vertex="1" parent="1">
          <mxGeometry x="380" y="210" width="90" height="40" as="geometry" />
        </mxCell>
        <mxCell id="-CZIh_7qn00PK2EPtxuE-12" value="" style="endArrow=classic;html=1;rounded=0;" edge="1" parent="1" source="-CZIh_7qn00PK2EPtxuE-5" target="-CZIh_7qn00PK2EPtxuE-6">
          <mxGeometry width="50" height="50" relative="1" as="geometry">
            <mxPoint x="460" y="250" as="sourcePoint" />
            <mxPoint x="510" y="200" as="targetPoint" />
          </mxGeometry>
        </mxCell>
        <mxCell id="-CZIh_7qn00PK2EPtxuE-19" value="Buku Yang Dipinjam" style="whiteSpace=wrap;html=1;rounded=1;" vertex="1" parent="1">
          <mxGeometry x="445" y="280" width="102" height="40" as="geometry" />
        </mxCell>
        <mxCell id="-CZIh_7qn00PK2EPtxuE-21" value="Buku Yang Dibaca" style="rounded=1;whiteSpace=wrap;html=1;" vertex="1" parent="1">
          <mxGeometry x="445" y="358" width="102" height="40" as="geometry" />
        </mxCell>
        <mxCell id="-CZIh_7qn00PK2EPtxuE-22" value="Buku Yang Dikembalikan" style="rounded=1;whiteSpace=wrap;html=1;" vertex="1" parent="1">
          <mxGeometry x="445" y="450" width="99" height="40" as="geometry" />
        </mxCell>
        <mxCell id="-CZIh_7qn00PK2EPtxuE-23" value="" style="endArrow=classic;html=1;rounded=0;" edge="1" parent="1" source="-CZIh_7qn00PK2EPtxuE-9" target="-CZIh_7qn00PK2EPtxuE-21">
          <mxGeometry width="50" height="50" relative="1" as="geometry">
            <mxPoint x="480" y="410" as="sourcePoint" />
            <mxPoint x="530" y="360" as="targetPoint" />
          </mxGeometry>
        </mxCell>
        <mxCell id="-CZIh_7qn00PK2EPtxuE-24" value="" style="endArrow=classic;html=1;rounded=0;" edge="1" parent="1" source="-CZIh_7qn00PK2EPtxuE-9" target="-CZIh_7qn00PK2EPtxuE-22">
          <mxGeometry width="50" height="50" relative="1" as="geometry">
            <mxPoint x="480" y="410" as="sourcePoint" />
            <mxPoint x="530" y="360" as="targetPoint" />
            <Array as="points">
              <mxPoint x="410" y="378" />
              <mxPoint x="410" y="470" />
            </Array>
          </mxGeometry>
        </mxCell>
        <mxCell id="-CZIh_7qn00PK2EPtxuE-25" value="" style="endArrow=classic;html=1;rounded=0;" edge="1" parent="1" source="-CZIh_7qn00PK2EPtxuE-9" target="-CZIh_7qn00PK2EPtxuE-26">
          <mxGeometry width="50" height="50" relative="1" as="geometry">
            <mxPoint x="480" y="410" as="sourcePoint" />
            <mxPoint x="530" y="360" as="targetPoint" />
          </mxGeometry>
        </mxCell>
        <mxCell id="-CZIh_7qn00PK2EPtxuE-26" value="Logout" style="rounded=1;whiteSpace=wrap;html=1;" vertex="1" parent="1">
          <mxGeometry x="265" y="480" width="90" height="40" as="geometry" />
        </mxCell>
      </root>
    </mxGraphModel>
  </diagram>
</mxfile>
